<svg xmlns="http://www.w3.org/2000/svg" viewBox="0 0 32 32" width="32" height="32">
  <defs>
    <radialGradient id="halo" cx="50%" cy="50%" r="50%">
      <stop offset="0%"   stop-color="#c084fc" stop-opacity="0.6"/>
      <stop offset="40%"  stop-color="#7c3aed" stop-opacity="0.2"/>
      <stop offset="100%" stop-color="#0a0015" stop-opacity="0"/>
    </radialGradient>
    <radialGradient id="core" cx="50%" cy="50%" r="50%">
      <stop offset="0%"   stop-color="#ffffff" stop-opacity="1"/>
      <stop offset="40%"  stop-color="#e9d5ff" stop-opacity="0.8"/>
      <stop offset="100%" stop-color="#a855f7" stop-opacity="0"/>
    </radialGradient>
    <filter id="bg"><feGaussianBlur stdDeviation="1.2"/></filter>
    <filter id="bc"><feGaussianBlur stdDeviation="0.6"/></filter>
  </defs>
  <rect width="32" height="32" fill="#0a0015" rx="6"/>
  <circle cx="16" cy="16" r="12" fill="url(#halo)"/>
  <g filter="url(#bg)" opacity="0.6">
    <line x1="16" y1="2"  x2="16" y2="30" stroke="#c084fc" stroke-width="1.2"/>
    <line x1="2"  y1="16" x2="30" y2="16" stroke="#c084fc" stroke-width="1.2"/>
    <line x1="5"  y1="5"  x2="27" y2="27" stroke="#a855f7" stroke-width="0.7"/>
    <line x1="27" y1="5"  x2="5"  y2="27" stroke="#a855f7" stroke-width="0.7"/>
  </g>
  <g opacity="0.95">
    <line x1="16" y1="3"  x2="16" y2="13" stroke="#e9d5ff" stroke-width="0.7" stroke-linecap="round"/>
    <line x1="16" y1="19" x2="16" y2="29" stroke="#e9d5ff" stroke-width="0.7" stroke-linecap="round"/>
    <line x1="3"  y1="16" x2="13" y2="16" stroke="#e9d5ff" stroke-width="0.7" stroke-linecap="round"/>
    <line x1="19" y1="16" x2="29" y2="16" stroke="#e9d5ff" stroke-width="0.7" stroke-linecap="round"/>
    <line x1="6"  y1="6"  x2="12" y2="12" stroke="#c084fc" stroke-width="0.5" stroke-linecap="round" opacity="0.8"/>
    <line x1="20" y1="20" x2="26" y2="26" stroke="#c084fc" stroke-width="0.5" stroke-linecap="round" opacity="0.8"/>
    <line x1="26" y1="6"  x2="20" y2="12" stroke="#c084fc" stroke-width="0.5" stroke-linecap="round" opacity="0.8"/>
    <line x1="6"  y1="26" x2="12" y2="20" stroke="#c084fc" stroke-width="0.5" stroke-linecap="round" opacity="0.8"/>
  </g>
  <circle cx="16" cy="16" r="3" fill="url(#core)" filter="url(#bc)"/>
  <circle cx="16" cy="16" r="1.5" fill="#ffffff"/>
</svg>
